<svg width="1em" height="1em" viewBox="0 0 24 24" fill="none" xmlns="http://www.w3.org/2000/svg">
<rect x="2" y="4" width="4" height="4" fill="currentColor"/>
<path d="M21.4916 18.1006L18.7791 20.2172L18.7791 15.9839L21.4916 18.1006Z" fill="currentColor"/>
<path d="M5.00098 17.8877H6.55664V19.8887H3.00098V16.1836H5.00098V17.8877ZM12.751 19.8887H7.63672V17.8877H12.751V19.8887ZM17.3818 19.8887H13.8496V17.8877H17.3818V19.8887ZM7.00879 13.1084H5.00098V14.8115L3.00098 14.8125V11.1074H7.00879V13.1084ZM14.9541 13.1084H8.95801V11.1074H14.9541V13.1084ZM20.9717 9.5752V13.1084H16.9561V11.1074H18.9707V9.5752H20.9717ZM20.9717 8.50293L18.9707 8.50195V6.96973H15.9551V4.96875H20.9717V8.50293ZM13.291 6.97266H7.00879V4.97168H13.291V6.97266Z" fill="currentColor"/>
</svg>
